# xmcd CD database file
#
# Track frame offsets:
#	162
#	11322
#	22875
#	33262
#	46245
#	60447
#	70870
#	80075
#	94520
#	103935
#	120677
#	132470
#	144960
#	158575
#	170220
#	185922
#	197887
#	210735
#
# Disc length: 2947 seconds
#
# Revision: 0
# Processed by: cddbd v1.5.1PL0 Copyright (c) Steve Scherf et al.
# Submitted via: CDex 1.51
#
DISCID=f70b8112
DTITLE=Dinah Washington - The Best Of [Dinah Washington]
DYEAR=1994
DGENRE=Blues
TTITLE0=Fly Me To the Moon
TTITLE1=Somethings Gotta Give
TTITLE2=Call Me Irresponsible
TTITLE3=Thats My Desire
TTITLE4=Say It Isn't So
TTITLE5=Soulville
TTITLE6=I'll Never Stop Loving You
TTITLE7=He's My Guy
TTITLE8=What Kind Of Fool Am I
TTITLE9=If I never Get To Heaven
TTITLE10=Funny Thing
TTITLE11=Rags To Riches
TTITLE12=Lover Man
TTITLE13=I'll Drown In MyTears
TTITLE14=These Foolish Things
TTITLE15=Key To The Highway
TTITLE16=I'll Close My Eyes
TTITLE17=Do Nothin' 'Till You Hear From Me
EXTD=YEAR: 1994
EXTT0=
EXTT1=
EXTT2=
EXTT3=
EXTT4=
EXTT5=
EXTT6=
EXTT7=
EXTT8=
EXTT9=
EXTT10=
EXTT11=
EXTT12=
EXTT13=
EXTT14=
EXTT15=
EXTT16=
EXTT17=
PLAYORDER=
